<svg width="290" height="290" viewBox="0 0 290 290" xmlns="http://www.w3.org/2000/svg" style="background:#fff"><title>vertical-logo</title><g fill="none" fill-rule="evenodd"><path fill="#F58C54" d="M145.445 61l54.445 28v56l-54.445 28L91 145V89z"/><path d="M138.867 120.73l4.877-13.024c1.039-2.853 2.239-7.756 2.239-7.756h.159s1.199 4.903 2.239 7.756l4.876 13.024h-14.39zM120 141.948h6.315c3.998 0 5.357-.951 6.636-4.244l3.518-9.072h19.186l3.518 9.072c1.28 3.293 2.718 4.244 6.716 4.244h6.236v-8.121h-1.28c-1.358 0-1.999-.293-2.477-1.61L151.579 90h-10.953l-16.869 42.217c-.479 1.317-1.118 1.61-2.478 1.61H120v8.121z" fill="#FFF"/><g fill="#F58C54"><path d="M74.222 218.425l-3.41-9.203c-.438-1.208-.99-3.334-.99-3.334h-.072s-.549 2.126-.991 3.334l-3.374 9.203h8.837zm-16.02 8.177h.476c.66 0 1.062-.11 1.32-.81L68.43 203.1h2.75l8.434 22.692c.256.7.62.81 1.319.81h.438v2.272H80.2c-1.834 0-2.383-.367-3.043-2.126l-2.237-6.086H64.69l-2.271 6.086c-.663 1.759-1.176 2.126-3.009 2.126h-1.207v-2.272zM85.16 206.252h2.42V203.1h-2.42v3.152zm.074 7.15c0-.514-.295-.806-.809-.806h-1.537v-2.162h2.604c1.575 0 2.235.66 2.235 2.236v13.234c0 .549.293.806.806.806h1.54v2.164H87.47c-1.577 0-2.236-.66-2.236-2.236v-13.237zM94.258 213.401c0-.513-.292-.805-.806-.805h-1.539v-2.162h2.567c1.54 0 2.235.62 2.235 2.09v1.244c0 .77-.074 1.394-.074 1.394h.074c.88-2.787 2.935-4.913 5.83-4.913.514 0 .989.11.989.11v2.458s-.44-.075-.916-.075c-2.603 0-4.547 2.054-5.353 4.767-.368 1.174-.514 2.418-.514 3.59v7.775h-2.493V213.4M115.31 227.113c3.26 0 5.938-2.75 5.938-7.443 0-4.508-2.42-7.403-5.83-7.403-3.077 0-5.976 2.198-5.976 7.443 0 3.7 1.91 7.403 5.869 7.403zm-8.287-21.043c0-.514-.292-.806-.805-.806h-1.54V203.1h2.603c1.576 0 2.235.66 2.235 2.235v6.675c0 .842-.074 1.501-.074 1.501h.074s1.54-3.518 6.272-3.518c4.95 0 8.027 3.961 8.027 9.677 0 5.83-3.484 9.643-8.322 9.643-4.397 0-6.051-3.556-6.051-3.556h-.072s.072.624.072 1.505v1.612h-2.42V206.07zM128.559 213.401c0-.513-.295-.805-.806-.805h-1.54v-2.162h2.564c1.54 0 2.236.62 2.236 2.09v1.244c0 .77-.072 1.394-.072 1.394h.072c.88-2.787 2.935-4.913 5.83-4.913.513 0 .987.11.987.11v2.458s-.438-.075-.912-.075c-2.604 0-4.55 2.054-5.356 4.767-.365 1.174-.513 2.418-.513 3.59v7.775h-2.49V213.4M145.575 227.187c3.519 0 5.645-3.666 5.645-6.857v-.842h-1.063c-2.896 0-8.69.076-8.69 4.215 0 1.725 1.358 3.484 4.108 3.484zm4.621-9.678h1.024v-.22c0-3.849-1.394-5.207-4.768-5.207-.913 0-3.591.257-3.591 1.614v1.174h-2.382v-1.76c0-2.569 4.397-3.117 6.012-3.117 5.831 0 7.221 3.116 7.221 7.074v8.837c0 .549.293.806.806.806h1.54v2.164h-2.528c-1.576 0-2.2-.696-2.2-2.2 0-.806.036-1.356.036-1.356h-.072c.036 0-1.504 3.995-6.122 3.995-3.081 0-6.269-1.795-6.269-5.463 0-6.123 8.102-6.341 11.293-6.341zM159.922 206.07c0-.514-.292-.806-.806-.806h-1.54V203.1h2.602c1.577 0 2.237.549 2.237 2.128v12.245h1.907c.693 0 1.576-.221 2.09-.88l4.729-6.16h3.041l-5.317 6.745c-.916 1.137-1.39 1.32-1.39 1.32v.074s.55.257 1.134 1.355l3.337 5.977c.329.623.695.806 1.688.806h.987v2.164h-1.723c-1.833 0-2.346-.293-3.19-1.833l-3.667-6.6c-.4-.731-1.28-.806-1.94-.806h-1.686v9.239h-2.493V206.07M190.473 217.765c-.15-3.81-2.496-5.683-5.206-5.683-3.045 0-5.72 1.98-6.348 5.683h11.554zm-5.172-7.772c5.094 0 7.739 3.921 7.739 8.504 0 .441-.078 1.248-.078 1.248h-14.15c.072 4.656 3.338 7.332 7.146 7.332 3.374 0 5.542-2.272 5.542-2.272l1.205 1.869s-2.675 2.639-6.853 2.639c-5.464 0-9.642-3.959-9.642-9.643 0-6.048 4.142-9.677 9.091-9.677zM197.374 228.874h2.825v-2.932h-2.825zM206.031 206.252h2.419V203.1h-2.419v3.152zm.072 7.15c0-.514-.293-.806-.806-.806h-1.54v-2.162h2.602c1.577 0 2.24.66 2.24 2.236v13.234c0 .549.293.806.805.806h1.541v2.164h-2.603c-1.577 0-2.239-.66-2.239-2.236v-13.237zM223.154 227.077c3.923 0 7.154-3.227 7.154-7.513 0-4.184-3.231-7.297-7.154-7.297-3.958 0-7.181 3.113-7.181 7.297 0 4.286 3.223 7.513 7.181 7.513zm-.035-17.084c5.392 0 9.75 4.107 9.75 9.57 0 5.57-4.358 9.75-9.715 9.75-5.39 0-9.75-4.18-9.75-9.75 0-5.463 4.36-9.57 9.715-9.57z"/></g></g></svg>