<svg xmlns="http://www.w3.org/2000/svg" width="56" height="58" viewBox="0 0 56 58"><title>  logo-header</title><desc>  Created with Sketch.</desc><g fill="none"><g fill="#FFF"><path d="M28 0L56 14.4 56 43.2 28 57.6 0 43.2 0 14.4 28 0ZM24.6 30.7L27.1 24C27.7 22.6 28.3 20 28.3 20L28.4 20C28.4 20 29 22.6 29.5 24L32 30.7 24.6 30.7ZM14.9 41.6L18.2 41.6C20.2 41.6 20.9 41.1 21.6 39.4L23.4 34.8 33.3 34.8 35.1 39.4C35.7 41.1 36.5 41.6 38.5 41.6L41.7 41.6 41.7 37.5 41.1 37.5C40.4 37.5 40 37.3 39.8 36.6L31.2 14.9 25.5 14.9 16.8 36.6C16.6 37.3 16.3 37.5 15.6 37.5L14.9 37.5 14.9 41.6Z"/></g></g></svg>
